<?xml version="1.0" encoding="utf-8"?>
<!-- Generator: Adobe Illustrator 27.6.1, SVG Export Plug-In . SVG Version: 6.00 Build 0)  -->
<svg version="1.1" id="Calque_1" xmlns="http://www.w3.org/2000/svg" xmlns:xlink="http://www.w3.org/1999/xlink" x="0px" y="0px"
	 viewBox="0 0 595.3 841.9" style="enable-background:new 0 0 595.3 841.9;" xml:space="preserve">
<style type="text/css">
	.st0{fill:none;stroke:#000000;stroke-width:0.2835;stroke-miterlimit:10;}
</style>
<rect x="227.8" y="379.1" class="st0" width="141.7" height="141.7"/>
<polygon class="st0" points="521.7,379.1 521.7,520.8 380,520.8 380,379.1 391.3,379.1 391.3,508.5 510.4,508.5 510.4,379.1 "/>
<path class="st0" d="M75.6,379.1v141.7h141.7V379.1H75.6z M147.9,478.2c-15.6,0.8-29-11.2-29.8-26.8c-0.8-15.6,11.2-29,26.8-29.8
	c15.6-0.8,29,11.2,29.8,26.8S163.6,477.4,147.9,478.2z"/>
<path class="st0" d="M298.7,228c-31.3,0-56.7,25.4-56.7,56.7c0,31.3,25.4,56.7,56.7,56.7c31.3,0,56.7-25.4,56.7-56.7
	C355.3,253.4,330,228,298.7,228z M298.7,321.6c-20.4,0-36.9-16.5-36.9-36.9s16.5-36.9,36.9-36.9c20.4,0,36.9,16.5,36.9,36.9
	S319,321.6,298.7,321.6z"/>
</svg>
